# xmcd CD database file
#
# Track frame offsets:
#	150
#	18476
#	33851
#	56664
#	76286
#	93050
#	110412
#	128075
#	147576
#	166830
#	183796
#	200626
#
# Disc length: 2908 seconds
#
# Revision: 0
# Processed by: cddbd v1.5.2PL0 Copyright (c) Steve Scherf et al.
# Submitted via: CDex 1.50beta10
#
DISCID=960b5a0c
DTITLE=Trisha Yearwood - Ballads
DYEAR=2013
DGENRE=Country
TTITLE0=How Do I Live
TTITLE1=Thinkin' About You
TTITLE2=Maybe It's Love
TTITLE3=Walkaway Joe
TTITLE4=I Need You
TTITLE5=The Nightingale
TTITLE6=Down On My Knees
TTITLE7=When We Where Still In Love
TTITLE8=You're Where I Belong
TTITLE9=A Lover Is Forever
TTITLE10=I Would've Loved You Anyway
TTITLE11=The Song Remembers When
EXTD=YEAR: 2013
EXTT0=
EXTT1=
EXTT2=
EXTT3=
EXTT4=
EXTT5=
EXTT6=
EXTT7=
EXTT8=
EXTT9=
EXTT10=
EXTT11=
PLAYORDER=
